<svg width="1268" height="204" viewBox="0 0 1268 204" version="1.1" xmlns="http://www.w3.org/2000/svg" xmlns:xlink="http://www.w3.org/1999/xlink" xmlns:figma="http://www.figma.com/figma/ns">
<title>layer1</title>
<desc>Created using Figma</desc>
<g id="Canvas" transform="translate(697 62)" figma:type="canvas">
<g id="layer1" figma:type="frame">
<g id="CORNERSTONE" figma:type="text">
<use xlink:href="#path0_fill" transform="matrix(1.24811 0 0 0.80121 -698 -90)" fill="#F7DA64"/>
</g>
<g id="path10311" figma:type="vector">
<use xlink:href="#path1_fill" transform="translate(439.414 -61.3737)" fill="#F7DA64"/>
</g>
<g id="rect10313" figma:type="vector">
<use xlink:href="#path2_fill" transform="matrix(0.710322 -0.703877 0.710322 0.703877 366.285 87.0923)" fill="#F7DA64"/>
</g>
<g id="rect10315" figma:type="vector">
<use xlink:href="#path3_fill" transform="translate(-696.676 64.4409)" fill="#F7DA64"/>
</g>
</g>
</g>
<defs>
<path id="path0_fill" d="M 39.6701 191.333C 29.2247 191.333 20.8351 188.055 14.5012 181.499C 8.27848 174.943 5.16711 165.942 5.16711 154.497L 5.16711 88.4913C 5.16711 74.2679 8.00068 63.5448 13.6678 56.3219C 19.335 49.0991 28.2246 45.4877 40.3368 45.4877C 50.8932 45.4877 59.394 48.3768 65.839 54.1551C 72.2839 59.9333 75.5064 68.2674 75.5064 79.1572L 75.5064 103.826L 47.004 103.826L 47.004 82.6575C 47.004 78.546 46.504 75.7125 45.5039 74.1568C 44.5038 72.6011 42.7814 71.8232 40.3368 71.8232C 37.781 71.8232 36.0031 72.7122 35.003 74.4901C 34.114 76.2681 33.6695 78.8794 33.6695 82.3241L 33.6695 154.164C 33.6695 157.942 34.2251 160.72 35.3363 162.498C 36.4476 164.164 38.1144 164.998 40.3368 164.998C 44.7816 164.998 47.004 161.386 47.004 154.164L 47.004 128.328L 75.8398 128.328L 75.8398 155.33C 75.8398 179.332 63.7832 191.333 39.6701 191.333ZM 119.449 191.333C 107.892 191.333 99.1139 187.833 93.1134 180.833C 87.1129 173.721 84.1126 163.776 84.1126 150.997L 84.1126 82.8242C 84.1126 70.4898 87.1129 61.2112 93.1134 54.9885C 99.1139 48.6546 107.892 45.4877 119.449 45.4877C 131.006 45.4877 139.784 48.6546 145.785 54.9885C 151.785 61.2112 154.785 70.4898 154.785 82.8242L 154.785 150.997C 154.785 163.887 151.785 173.832 145.785 180.833C 139.784 187.833 131.006 191.333 119.449 191.333ZM 119.449 164.998C 122.005 164.998 123.727 163.887 124.616 161.664C 125.505 159.442 125.95 156.33 125.95 152.33L 125.95 82.3241C 125.95 79.2128 125.505 76.7126 124.616 74.8235C 123.838 72.8233 122.171 71.8232 119.616 71.8232C 114.837 71.8232 112.448 75.4347 112.448 82.6575L 112.448 152.497C 112.448 156.608 112.948 159.72 113.949 161.831C 114.949 163.942 116.782 164.998 119.449 164.998ZM 166.341 46.8211L 210.345 46.8211C 217.345 46.8211 222.735 48.4324 226.513 51.6549C 230.402 54.7662 233.013 59.2111 234.347 64.9893C 235.68 70.6565 236.347 77.9349 236.347 86.8245C 236.347 94.9363 235.291 101.27 233.18 105.826C 231.069 110.382 227.402 113.549 222.179 115.327C 226.513 116.216 229.624 118.383 231.513 121.828C 233.513 125.272 234.514 129.939 234.514 135.829L 234.18 190L 206.178 190L 206.178 133.995C 206.178 129.995 205.4 127.439 203.844 126.328C 202.289 125.217 199.455 124.661 195.343 124.661L 195.343 190L 166.341 190L 166.341 46.8211ZM 202.344 99.8256C 206.344 99.8256 208.345 95.4919 208.345 86.8245C 208.345 83.0464 208.178 80.2129 207.845 78.3238C 207.511 76.4348 206.9 75.1569 206.011 74.4901C 205.122 73.7123 203.844 73.3234 202.177 73.3234L 195.51 73.3234L 195.51 99.8256L 202.344 99.8256ZM 245.775 190L 245.775 46.8211L 275.277 46.8211L 288.445 115.327L 288.445 46.8211L 316.114 46.8211L 316.114 190L 288.112 190L 273.777 118.327L 273.777 190L 245.775 190ZM 328.79 190L 328.79 46.8211L 386.128 46.8211L 386.128 74.4901L 357.959 74.4901L 357.959 102.326L 384.961 102.326L 384.961 129.328L 357.959 129.328L 357.959 162.164L 387.961 162.164L 387.961 190L 328.79 190ZM 397.481 46.8211L 441.484 46.8211C 448.485 46.8211 453.874 48.4324 457.652 51.6549C 461.542 54.7662 464.153 59.2111 465.486 64.9893C 466.82 70.6565 467.487 77.9349 467.487 86.8245C 467.487 94.9363 466.431 101.27 464.32 105.826C 462.208 110.382 458.541 113.549 453.319 115.327C 457.652 116.216 460.764 118.383 462.653 121.828C 464.653 125.272 465.653 129.939 465.653 135.829L 465.32 190L 437.317 190L 437.317 133.995C 437.317 129.995 436.539 127.439 434.984 126.328C 433.428 125.217 430.594 124.661 426.483 124.661L 426.483 190L 397.481 190L 397.481 46.8211ZM 433.484 99.8256C 437.484 99.8256 439.484 95.4919 439.484 86.8245C 439.484 83.0464 439.317 80.2129 438.984 78.3238C 438.651 76.4348 438.04 75.1569 437.151 74.4901C 436.262 73.7123 434.984 73.3234 433.317 73.3234L 426.65 73.3234L 426.65 99.8256L 433.484 99.8256ZM 510.917 191.333C 497.916 191.333 488.527 188.111 482.748 181.666C 476.97 175.221 474.081 164.831 474.081 150.497L 474.081 136.495L 502.25 136.495L 502.25 154.33C 502.25 161.442 504.528 164.998 509.084 164.998C 511.64 164.998 513.418 164.276 514.418 162.831C 515.418 161.275 515.918 158.72 515.918 155.164C 515.918 150.497 515.362 146.663 514.251 143.663C 513.14 140.551 511.695 137.996 509.917 135.995C 508.25 133.884 505.195 130.662 500.75 126.328L 488.415 113.994C 478.859 104.659 474.081 94.3252 474.081 82.9909C 474.081 70.7676 476.859 61.489 482.415 55.1552C 488.082 48.7102 496.305 45.4877 507.084 45.4877C 519.974 45.4877 529.252 48.9324 534.919 55.8219C 540.587 62.6002 543.42 73.2678 543.42 87.8246L 514.251 87.8246L 514.084 77.9904C 514.084 76.1014 513.529 74.6013 512.417 73.4901C 511.417 72.3788 509.973 71.8232 508.084 71.8232C 505.861 71.8232 504.195 72.4344 503.083 73.6567C 501.972 74.8791 501.417 76.5459 501.417 78.6572C 501.417 83.3242 504.083 88.158 509.417 93.1584L 526.085 109.16C 529.974 112.938 533.197 116.549 535.753 119.994C 538.309 123.328 540.364 127.328 541.92 131.995C 543.476 136.551 544.253 141.996 544.253 148.33C 544.253 162.442 541.642 173.165 536.419 180.499C 531.308 187.722 522.807 191.333 510.917 191.333ZM 566.078 190L 566.078 74.3235L 549.077 74.3235L 549.077 46.8211L 611.749 46.8211L 611.749 74.3235L 594.747 74.3235L 594.747 190L 566.078 190ZM 654 191.333C 642.443 191.333 633.665 187.833 627.664 180.833C 621.664 173.721 618.664 163.776 618.664 150.997L 618.664 82.8242C 618.664 70.4898 621.664 61.2112 627.664 54.9885C 633.665 48.6546 642.443 45.4877 654 45.4877C 665.556 45.4877 674.335 48.6546 680.335 54.9885C 686.336 61.2112 689.336 70.4898 689.336 82.8242L 689.336 150.997C 689.336 163.887 686.336 173.832 680.335 180.833C 674.335 187.833 665.556 191.333 654 191.333ZM 654 164.998C 656.556 164.998 658.278 163.887 659.167 161.664C 660.056 159.442 660.5 156.33 660.5 152.33L 660.5 82.3241C 660.5 79.2128 660.056 76.7126 659.167 74.8235C 658.389 72.8233 656.722 71.8232 654.167 71.8232C 649.388 71.8232 646.999 75.4347 646.999 82.6575L 646.999 152.497C 646.999 156.608 647.499 159.72 648.499 161.831C 649.499 163.942 651.333 164.998 654 164.998ZM 700.892 190L 700.892 46.8211L 730.394 46.8211L 743.562 115.327L 743.562 46.8211L 771.231 46.8211L 771.231 190L 743.229 190L 728.894 118.327L 728.894 190L 700.892 190ZM 783.907 190L 783.907 46.8211L 841.245 46.8211L 841.245 74.4901L 813.076 74.4901L 813.076 102.326L 840.078 102.326L 840.078 129.328L 813.076 129.328L 813.076 162.164L 843.078 162.164L 843.078 190L 783.907 190Z"/>
<path id="path1_fill" d="M -1.50879e-05 -1.91406e-06L 130.908 -1.91406e-06L 130.908 130.908C 54.5529 54.5531 55.4149 55.4146 -1.50879e-05 -1.91406e-06Z"/>
<path id="path2_fill" d="M 161.317 0L 0 0L 0 77.1518L 161.317 77.1518L 161.317 0Z"/>
<path id="path3_fill" d="M 1118.27 4.31641e-06L 0 4.31641e-06L 0 76.7993L 1118.27 76.7993L 1118.27 4.31641e-06Z"/>
</defs>
</svg>
